<svg width="521" height="480" viewBox="0 0 521 480" fill="none" xmlns="http://www.w3.org/2000/svg">
<path d="M34.875 68.9H486.45C505.975 68.9 520.825 54.05 520.825 34.525C520.825 15.775 505.975 0.924988 486.45 0.924988H34.875C15.35 0.924988 0.5 15.775 0.5 34.525C0.5 54.05 15.35 68.9 34.875 68.9ZM34.875 205.625H486.45C505.975 205.625 520.825 190.775 520.825 171.25C520.825 152.5 505.975 137.65 486.45 137.65H34.875C15.35 137.65 0.5 152.5 0.5 171.25C0.5 190.775 15.35 205.625 34.875 205.625ZM34.875 342.35H486.45C505.975 342.35 520.825 327.5 520.825 308.75C520.825 289.225 505.975 274.375 486.45 274.375H34.875C15.35 274.375 0.5 289.225 0.5 308.75C0.5 327.5 15.35 342.35 34.875 342.35ZM34.875 479.075H486.45C505.975 479.075 520.825 464.225 520.825 445.475C520.825 425.95 505.975 411.1 486.45 411.1H34.875C15.35 411.1 0.5 425.95 0.5 445.475C0.5 464.225 15.35 479.075 34.875 479.075Z" fill="white"/>
</svg>
